# xmcd
#
# Track frame offsets:
#	150
#	18949
#	36261
#	50062
#	69387
#	81974
#	95445
#	114144
#	132347
#	149685
#	163814
#	179881
#	196014
#	213849
#	231376
#	246519
#	263021
#	276279
#	293074
#	310481
#
# Disc length: 4358
#
# Revision: 1
# Processed by: cddbd v1.5.1PL0 Copyright (c) Steve Scherf et al.
# Submitted via: audiograbber 1.81.01
# Normalized: r0:DSETVAR1
#
DISCID=33110414
DTITLE=Various Artist - The Dome Vol.14 - CD 2
DYEAR=2000
DGENRE=Pop
TTITLE0=Sabrina Setlur - Alles
TTITLE1=Reamonn - Supergirl
TTITLE2=H-Bloockx Vs. Dr. Ring Ding - Ring Of Fire
TTITLE3=Die Toten Hosen - Bayern
TTITLE4=Guano Apes - Big In Japan
TTITLE5=Moby - Natural Blues
TTITLE6=Band Ohne Namen - Take My Heart
TTITLE7=Anastacia - I´m Outta Love
TTITLE8=Marc Anthony - You Sang To Me
TTITLE9=Passion Fruit - Sun Fun Baby
TTITLE10=Vengaboys - Shalala Lala
TTITLE11=Four Colourz - Abcd
TTITLE12=Will Smith - Freakin´ It
TTITLE13=Oli P. - Plötzlich Stand Sie Da
TTITLE14=Junia - Skaterboy
TTITLE15=Keno - Werft Die Hände
TTITLE16=Score - Du Kannst  Mich Mal
TTITLE17=Mark Keller - You´ll Never Find
TTITLE18=Loewenherz - La Luna
TTITLE19=Alternative Allstars - Rock On !
EXTD=
EXTT0=
EXTT1=
EXTT2=
EXTT3=
EXTT4=
EXTT5=
EXTT6=
EXTT7=
EXTT8=
EXTT9=
EXTT10=
EXTT11=
EXTT12=
EXTT13=
EXTT14=
EXTT15=
EXTT16=
EXTT17=
EXTT18=
EXTT19=
PLAYORDER=
